<svg xmlns="http://www.w3.org/2000/svg" version="1.1" xmlns:xlink="http://www.w3.org/1999/xlink" xmlns:svgjs="http://svgjs.dev/svgjs" width="1440" height="300" preserveAspectRatio="none" viewBox="0 0 1440 300">
    <g mask="url(&quot;#SvgjsMask1497&quot;)" fill="none">
        <use xlink:href="#SvgjsSymbol1504" x="0" y="0"></use>
        <use xlink:href="#SvgjsSymbol1504" x="720" y="0"></use>
    </g>
    <defs>
        <mask id="SvgjsMask1497">
            <rect width="1440" height="300" fill="#ffffff"></rect>
        </mask>
        <path d="M-1 0 a1 1 0 1 0 2 0 a1 1 0 1 0 -2 0z" id="SvgjsPath1499"></path>
        <path d="M-3 0 a3 3 0 1 0 6 0 a3 3 0 1 0 -6 0z" id="SvgjsPath1502"></path>
        <path d="M-5 0 a5 5 0 1 0 10 0 a5 5 0 1 0 -10 0z" id="SvgjsPath1498"></path>
        <path d="M2 -2 L-2 2z" id="SvgjsPath1501"></path>
        <path d="M6 -6 L-6 6z" id="SvgjsPath1500"></path>
        <path d="M30 -30 L-30 30z" id="SvgjsPath1503"></path>
    </defs>
    <symbol id="SvgjsSymbol1504">
        <use xlink:href="#SvgjsPath1498" x="30" y="30" stroke="#1c538e"></use>
        <use xlink:href="#SvgjsPath1499" x="30" y="90" stroke="#1c538e"></use>
        <use xlink:href="#SvgjsPath1500" x="30" y="150" stroke="#1c538e"></use>
        <use xlink:href="#SvgjsPath1501" x="30" y="210" stroke="#1c538e"></use>
        <use xlink:href="#SvgjsPath1501" x="30" y="270" stroke="#1c538e"></use>
        <use xlink:href="#SvgjsPath1498" x="90" y="30" stroke="#1c538e"></use>
        <use xlink:href="#SvgjsPath1500" x="90" y="90" stroke="#1c538e"></use>
        <use xlink:href="#SvgjsPath1500" x="90" y="150" stroke="#1c538e"></use>
        <use xlink:href="#SvgjsPath1500" x="90" y="210" stroke="#1c538e"></use>
        <use xlink:href="#SvgjsPath1501" x="90" y="270" stroke="#1c538e"></use>
        <use xlink:href="#SvgjsPath1500" x="150" y="30" stroke="#1c538e"></use>
        <use xlink:href="#SvgjsPath1501" x="150" y="90" stroke="#1c538e"></use>
        <use xlink:href="#SvgjsPath1502" x="150" y="150" stroke="#1c538e"></use>
        <use xlink:href="#SvgjsPath1499" x="150" y="210" stroke="#1c538e"></use>
        <use xlink:href="#SvgjsPath1498" x="150" y="270" stroke="#1c538e"></use>
        <use xlink:href="#SvgjsPath1500" x="210" y="30" stroke="#1c538e"></use>
        <use xlink:href="#SvgjsPath1500" x="210" y="90" stroke="#1c538e"></use>
        <use xlink:href="#SvgjsPath1501" x="210" y="150" stroke="#1c538e"></use>
        <use xlink:href="#SvgjsPath1500" x="210" y="210" stroke="#1c538e"></use>
        <use xlink:href="#SvgjsPath1502" x="210" y="270" stroke="#1c538e"></use>
        <use xlink:href="#SvgjsPath1498" x="270" y="30" stroke="#1c538e"></use>
        <use xlink:href="#SvgjsPath1498" x="270" y="90" stroke="#1c538e"></use>
        <use xlink:href="#SvgjsPath1502" x="270" y="150" stroke="#1c538e"></use>
        <use xlink:href="#SvgjsPath1499" x="270" y="210" stroke="#1c538e"></use>
        <use xlink:href="#SvgjsPath1500" x="270" y="270" stroke="#1c538e"></use>
        <use xlink:href="#SvgjsPath1500" x="330" y="30" stroke="#1c538e"></use>
        <use xlink:href="#SvgjsPath1500" x="330" y="90" stroke="#1c538e"></use>
        <use xlink:href="#SvgjsPath1500" x="330" y="150" stroke="#1c538e"></use>
        <use xlink:href="#SvgjsPath1500" x="330" y="210" stroke="#1c538e"></use>
        <use xlink:href="#SvgjsPath1500" x="330" y="270" stroke="#1c538e"></use>
        <use xlink:href="#SvgjsPath1498" x="390" y="30" stroke="#1c538e"></use>
        <use xlink:href="#SvgjsPath1503" x="390" y="90" stroke="#1c538e" stroke-width="3"></use>
        <use xlink:href="#SvgjsPath1500" x="390" y="150" stroke="#1c538e"></use>
        <use xlink:href="#SvgjsPath1501" x="390" y="210" stroke="#1c538e"></use>
        <use xlink:href="#SvgjsPath1503" x="390" y="270" stroke="#1c538e" stroke-width="3"></use>
        <use xlink:href="#SvgjsPath1499" x="450" y="30" stroke="#1c538e"></use>
        <use xlink:href="#SvgjsPath1498" x="450" y="90" stroke="#1c538e"></use>
        <use xlink:href="#SvgjsPath1501" x="450" y="150" stroke="#1c538e"></use>
        <use xlink:href="#SvgjsPath1500" x="450" y="210" stroke="#1c538e"></use>
        <use xlink:href="#SvgjsPath1500" x="450" y="270" stroke="#1c538e"></use>
        <use xlink:href="#SvgjsPath1498" x="510" y="30" stroke="#1c538e"></use>
        <use xlink:href="#SvgjsPath1503" x="510" y="90" stroke="#1c538e" stroke-width="3"></use>
        <use xlink:href="#SvgjsPath1498" x="510" y="150" stroke="#1c538e"></use>
        <use xlink:href="#SvgjsPath1498" x="510" y="210" stroke="#1c538e"></use>
        <use xlink:href="#SvgjsPath1500" x="510" y="270" stroke="#1c538e"></use>
        <use xlink:href="#SvgjsPath1501" x="570" y="30" stroke="#1c538e"></use>
        <use xlink:href="#SvgjsPath1499" x="570" y="90" stroke="#1c538e"></use>
        <use xlink:href="#SvgjsPath1498" x="570" y="150" stroke="#1c538e"></use>
        <use xlink:href="#SvgjsPath1498" x="570" y="210" stroke="#1c538e"></use>
        <use xlink:href="#SvgjsPath1498" x="570" y="270" stroke="#1c538e"></use>
        <use xlink:href="#SvgjsPath1498" x="630" y="30" stroke="#1c538e"></use>
        <use xlink:href="#SvgjsPath1501" x="630" y="90" stroke="#1c538e"></use>
        <use xlink:href="#SvgjsPath1500" x="630" y="150" stroke="#1c538e"></use>
        <use xlink:href="#SvgjsPath1498" x="630" y="210" stroke="#1c538e"></use>
        <use xlink:href="#SvgjsPath1500" x="630" y="270" stroke="#1c538e"></use>
        <use xlink:href="#SvgjsPath1500" x="690" y="30" stroke="#1c538e"></use>
        <use xlink:href="#SvgjsPath1498" x="690" y="90" stroke="#1c538e"></use>
        <use xlink:href="#SvgjsPath1498" x="690" y="150" stroke="#1c538e"></use>
        <use xlink:href="#SvgjsPath1503" x="690" y="210" stroke="#1c538e" stroke-width="3"></use>
        <use xlink:href="#SvgjsPath1499" x="690" y="270" stroke="#1c538e"></use>
    </symbol>
</svg>